<svg width="1048" height="914" viewBox="0 0 1048 914" fill="none" xmlns="http://www.w3.org/2000/svg">
<path d="M136.213 780.068C135.948 780.068 135.694 779.963 135.506 779.776C134.097 778.367 131.8 752.517 125.614 675.552C123.083 644.06 120.692 614.315 118.947 596.237C118.823 594.946 118.322 594.796 118.158 594.747C115.77 594.026 108.506 599.754 104.451 604.769C104.284 604.975 104.043 605.107 103.779 605.135C103.515 605.163 103.251 605.085 103.044 604.918C102.838 604.751 102.706 604.509 102.678 604.246C102.65 603.982 102.728 603.717 102.895 603.511C105.577 600.195 114.317 591.502 118.733 592.831C119.624 593.099 120.733 593.873 120.939 596.045C122.685 614.138 125.076 643.892 127.608 675.392C131.367 722.162 135.626 775.148 137.025 778.485C137.133 778.635 137.196 778.811 137.21 778.994C137.224 779.177 137.187 779.361 137.103 779.525C137.019 779.688 136.891 779.825 136.734 779.921C136.577 780.017 136.397 780.068 136.213 780.068Z" fill="#494949"/>
<path d="M116.381 629.411C132.975 616.109 138.475 595.406 128.665 583.169C118.856 570.931 97.452 571.793 80.8582 585.095C64.2644 598.396 58.7646 619.099 68.5739 631.337C78.3833 643.574 99.7873 642.712 116.381 629.411Z" fill="#0CBC8B"/>
<path opacity="0.2" d="M116.381 629.411C132.975 616.109 138.475 595.406 128.665 583.169C118.856 570.931 97.452 571.793 80.8582 585.095C64.2644 598.396 58.7646 619.099 68.5739 631.337C78.3833 643.574 99.7873 642.712 116.381 629.411Z" fill="white"/>
<path d="M73.2236 634.447C73.1288 634.447 73.036 634.42 72.956 634.369C72.876 634.318 72.8122 634.245 72.7719 634.159C72.7316 634.074 72.7166 633.978 72.7286 633.884C72.7406 633.79 72.7791 633.701 72.8396 633.628L120.131 576.6C120.216 576.501 120.337 576.439 120.468 576.428C120.598 576.417 120.728 576.458 120.829 576.542C120.93 576.626 120.994 576.746 121.007 576.876C121.02 577.007 120.982 577.137 120.9 577.239L73.6086 634.267C73.5616 634.324 73.5027 634.369 73.4362 634.4C73.3696 634.431 73.297 634.447 73.2236 634.447Z" fill="white"/>
<path d="M146.529 767.843C146.369 767.843 146.212 767.805 146.07 767.732C145.928 767.659 145.805 767.553 145.713 767.423C145.62 767.293 145.56 767.142 145.538 766.984C145.515 766.826 145.531 766.665 145.584 766.514L163.348 715.427C163.87 713.926 164.762 712.58 165.94 711.513C167.118 710.445 168.545 709.691 170.09 709.318C171.635 708.945 173.249 708.966 174.784 709.378C176.319 709.791 177.726 710.582 178.877 711.679L188.268 720.651C188.459 720.834 188.57 721.086 188.576 721.352C188.582 721.617 188.483 721.873 188.3 722.065C188.116 722.257 187.864 722.368 187.599 722.374C187.334 722.38 187.077 722.28 186.886 722.097L177.495 713.126C176.587 712.26 175.476 711.636 174.264 711.31C173.053 710.985 171.779 710.969 170.559 711.263C169.339 711.557 168.213 712.153 167.283 712.995C166.353 713.837 165.65 714.899 165.237 716.084L147.473 767.171C147.404 767.367 147.277 767.537 147.108 767.658C146.939 767.778 146.736 767.843 146.529 767.843Z" fill="#494949"/>
<path d="M214.505 748.933C226.802 739.199 226.072 717.79 212.872 701.115C199.673 684.439 179.004 678.813 166.707 688.547C154.409 698.281 155.14 719.689 168.339 736.365C181.538 753.04 202.207 758.667 214.505 748.933Z" fill="#0CBC8B"/>
<path d="M128.143 776.811C127.919 776.811 127.701 776.735 127.524 776.596C127.348 776.456 127.224 776.262 127.171 776.043L97.3615 651.4C97.1576 650.551 96.7235 649.774 96.1067 649.155C95.49 648.536 94.7145 648.099 93.8656 647.892C93.0168 647.686 92.1273 647.717 91.2951 647.983C90.4628 648.249 89.7201 648.739 89.1485 649.4L79.9595 660.019C79.8735 660.118 79.7688 660.2 79.6514 660.259C79.534 660.318 79.4061 660.353 79.2751 660.362C79.1441 660.372 79.0125 660.355 78.8878 660.314C78.7631 660.273 78.6478 660.207 78.5485 660.121C78.4491 660.035 78.3677 659.93 78.3088 659.813C78.2499 659.696 78.2147 659.568 78.2052 659.437C78.1958 659.306 78.2122 659.174 78.2536 659.049C78.295 658.925 78.3605 658.809 78.4465 658.71L87.6355 648.091C88.4481 647.152 89.504 646.455 90.6871 646.078C91.8701 645.7 93.1344 645.656 94.3409 645.95C95.5474 646.245 96.6493 646.866 97.5254 647.746C98.4014 648.626 99.0177 649.731 99.3065 650.939L129.116 775.583C129.178 775.841 129.135 776.113 128.996 776.339C128.857 776.565 128.634 776.726 128.376 776.788C128.3 776.805 128.222 776.813 128.143 776.811Z" fill="#494949"/>
<path d="M117.144 687.708C120.767 666.752 111.177 647.598 95.7225 644.925C80.2681 642.253 64.8021 657.074 61.1782 678.03C57.5544 698.986 67.145 718.14 82.5994 720.813C98.0538 723.485 113.52 708.664 117.144 687.708Z" fill="#0CBC8B"/>
<path d="M136.215 780.068C136.174 780.068 136.133 780.066 136.091 780.061C135.961 780.045 135.835 780.004 135.721 779.939C135.606 779.874 135.506 779.788 135.425 779.684C135.344 779.581 135.284 779.462 135.249 779.335C135.214 779.209 135.204 779.077 135.22 778.946L154.257 624.389C154.465 622.705 155.154 621.117 156.242 619.816C157.33 618.515 158.771 617.555 160.391 617.053C162.012 616.551 163.743 616.528 165.376 616.986C167.009 617.444 168.476 618.365 169.598 619.636L191.356 644.279C191.443 644.378 191.51 644.492 191.553 644.617C191.596 644.741 191.613 644.872 191.605 645.004C191.597 645.135 191.563 645.263 191.505 645.381C191.448 645.499 191.367 645.605 191.269 645.692C191.17 645.779 191.056 645.845 190.931 645.888C190.807 645.931 190.676 645.949 190.545 645.94C190.413 645.932 190.285 645.898 190.167 645.841C190.049 645.783 189.943 645.703 189.856 645.604L168.1 620.961C167.233 619.978 166.1 619.267 164.837 618.913C163.575 618.559 162.237 618.576 160.985 618.964C159.733 619.352 158.619 620.093 157.778 621.099C156.937 622.105 156.404 623.332 156.243 624.633L137.206 779.191C137.176 779.433 137.059 779.656 136.877 779.817C136.694 779.979 136.459 780.068 136.215 780.068Z" fill="#494949"/>
<path d="M213.672 657.975C221.263 644.25 212.331 624.78 193.722 614.486C175.112 604.193 153.872 606.973 146.281 620.697C138.689 634.422 147.621 653.892 166.231 664.186C184.84 674.48 206.08 671.699 213.672 657.975Z" fill="#0CBC8B"/>
<path opacity="0.2" d="M214.505 748.933C226.802 739.199 226.072 717.79 212.872 701.115C199.673 684.439 179.004 678.813 166.707 688.547C154.409 698.281 155.14 719.689 168.339 736.365C181.538 753.04 202.207 758.667 214.505 748.933Z" fill="white"/>
<path opacity="0.5" d="M117.144 687.708C120.767 666.752 111.177 647.598 95.7225 644.925C80.2681 642.253 64.8021 657.074 61.1782 678.03C57.5544 698.986 67.145 718.14 82.5994 720.813C98.0538 723.485 113.52 708.664 117.144 687.708Z" fill="white"/>
<path opacity="0.5" d="M213.672 657.975C221.263 644.25 212.331 624.78 193.722 614.486C175.112 604.193 153.872 606.973 146.281 620.697C138.689 634.422 147.621 653.892 166.231 664.186C184.84 674.48 206.08 671.699 213.672 657.975Z" fill="white"/>
<path d="M160.561 911.21H111.865L103.795 755.406H168.63L160.561 911.21Z" fill="#4E70F8"/>
<path opacity="0.3" d="M160.561 911.21H111.865L103.795 755.406H168.63L160.561 911.21Z" fill="white"/>
<path d="M214.507 749.43C214.432 749.43 214.357 749.413 214.289 749.38C214.221 749.347 214.161 749.299 214.114 749.24L166.314 688.854C166.273 688.803 166.243 688.744 166.225 688.681C166.207 688.617 166.202 688.551 166.209 688.486C166.217 688.421 166.237 688.358 166.269 688.3C166.301 688.243 166.344 688.192 166.396 688.152C166.447 688.111 166.506 688.081 166.569 688.063C166.632 688.045 166.699 688.039 166.764 688.047C166.829 688.054 166.892 688.075 166.949 688.107C167.007 688.139 167.057 688.182 167.098 688.233L214.898 748.619C214.957 748.693 214.993 748.781 215.004 748.875C215.014 748.968 214.998 749.063 214.957 749.147C214.916 749.232 214.852 749.303 214.773 749.353C214.693 749.403 214.601 749.43 214.507 749.43Z" fill="white"/>
<path d="M210.493 662.813C210.387 662.812 210.284 662.777 210.198 662.713L149.032 618.051C148.979 618.012 148.934 617.964 148.9 617.907C148.866 617.851 148.843 617.789 148.833 617.724C148.823 617.659 148.826 617.593 148.841 617.529C148.857 617.465 148.885 617.405 148.923 617.352C148.962 617.299 149.011 617.254 149.067 617.22C149.123 617.186 149.185 617.163 149.25 617.153C149.315 617.143 149.381 617.145 149.445 617.161C149.509 617.176 149.569 617.204 149.622 617.243L210.788 661.906C210.872 661.969 210.934 662.057 210.966 662.157C210.997 662.257 210.996 662.365 210.963 662.464C210.93 662.564 210.866 662.65 210.781 662.712C210.696 662.773 210.593 662.806 210.488 662.806L210.493 662.813Z" fill="white"/>
<path d="M80.1186 720.161C80.075 720.161 80.0317 720.155 79.9896 720.144C79.8615 720.11 79.7522 720.026 79.6858 719.911C79.6195 719.797 79.6014 719.66 79.6356 719.532L99.1076 646.579C99.1219 646.513 99.1496 646.451 99.1888 646.395C99.228 646.34 99.278 646.294 99.3358 646.259C99.3935 646.223 99.4578 646.2 99.5248 646.191C99.5917 646.181 99.6599 646.185 99.7253 646.202C99.7906 646.22 99.8517 646.25 99.9049 646.292C99.9581 646.334 100.002 646.386 100.035 646.445C100.067 646.505 100.087 646.57 100.094 646.637C100.1 646.705 100.093 646.773 100.073 646.837L80.6006 719.79C80.5722 719.896 80.5096 719.99 80.4225 720.057C80.3353 720.124 80.2285 720.161 80.1186 720.161Z" fill="white"/>
<path d="M448.152 769.422H279.01L252.51 789.27V684.209C252.51 680.284 254.07 676.519 256.845 673.744C259.621 670.968 263.385 669.409 267.31 669.409H448.152C452.077 669.409 455.842 670.968 458.617 673.744C461.393 676.519 462.952 680.284 462.952 684.209V754.62C462.953 756.564 462.57 758.489 461.826 760.284C461.083 762.08 459.992 763.712 458.618 765.087C457.244 766.461 455.612 767.551 453.816 768.295C452.021 769.039 450.096 769.422 448.152 769.422Z" fill="#F4F4F4"/>
<path d="M444.25 691.665H271.216C271.133 691.668 271.05 691.655 270.972 691.625C270.894 691.596 270.823 691.551 270.763 691.493C270.703 691.436 270.655 691.366 270.623 691.29C270.59 691.213 270.573 691.131 270.573 691.048C270.573 690.964 270.59 690.882 270.623 690.805C270.655 690.729 270.703 690.66 270.763 690.602C270.823 690.544 270.894 690.499 270.972 690.47C271.05 690.44 271.133 690.427 271.216 690.43H444.25C444.333 690.427 444.416 690.44 444.494 690.47C444.572 690.499 444.643 690.544 444.703 690.602C444.763 690.66 444.811 690.729 444.844 690.805C444.876 690.882 444.893 690.964 444.893 691.048C444.893 691.131 444.876 691.213 444.844 691.29C444.811 691.366 444.763 691.436 444.703 691.493C444.643 691.551 444.572 691.596 444.494 691.625C444.416 691.655 444.333 691.668 444.25 691.665Z" fill="white"/>
<path d="M444.25 711.583H271.216C271.133 711.586 271.05 711.573 270.972 711.543C270.894 711.514 270.823 711.469 270.763 711.411C270.703 711.354 270.655 711.284 270.623 711.208C270.59 711.131 270.573 711.049 270.573 710.966C270.573 710.882 270.59 710.8 270.623 710.723C270.655 710.647 270.703 710.578 270.763 710.52C270.823 710.462 270.894 710.417 270.972 710.388C271.05 710.358 271.133 710.345 271.216 710.348H444.25C444.333 710.345 444.416 710.358 444.494 710.388C444.572 710.417 444.643 710.462 444.703 710.52C444.763 710.578 444.811 710.647 444.844 710.723C444.876 710.8 444.893 710.882 444.893 710.966C444.893 711.049 444.876 711.131 444.844 711.208C444.811 711.284 444.763 711.354 444.703 711.411C444.643 711.469 444.572 711.514 444.494 711.543C444.416 711.573 444.333 711.586 444.25 711.583Z" fill="white"/>
<path d="M444.25 731.5H271.216C271.052 731.5 270.896 731.435 270.78 731.319C270.664 731.204 270.599 731.047 270.599 730.883C270.599 730.719 270.664 730.563 270.78 730.447C270.896 730.331 271.052 730.266 271.216 730.266H444.25C444.414 730.266 444.571 730.331 444.686 730.447C444.802 730.563 444.867 730.719 444.867 730.883C444.867 731.047 444.802 731.204 444.686 731.319C444.571 731.435 444.414 731.5 444.25 731.5Z" fill="white"/>
<path d="M407.207 751.418H271.216C271.133 751.422 271.05 751.408 270.972 751.378C270.894 751.349 270.823 751.304 270.763 751.246C270.703 751.189 270.655 751.119 270.623 751.043C270.59 750.966 270.573 750.884 270.573 750.801C270.573 750.717 270.59 750.635 270.623 750.558C270.655 750.482 270.703 750.413 270.763 750.355C270.823 750.297 270.894 750.252 270.972 750.223C271.05 750.193 271.133 750.18 271.216 750.183H407.207C407.29 750.18 407.373 750.193 407.451 750.223C407.529 750.252 407.6 750.297 407.66 750.355C407.72 750.413 407.768 750.482 407.801 750.558C407.833 750.635 407.85 750.717 407.85 750.801C407.85 750.884 407.833 750.966 407.801 751.043C407.768 751.119 407.72 751.189 407.66 751.246C407.6 751.304 407.529 751.349 407.451 751.378C407.373 751.408 407.29 751.422 407.207 751.418Z" fill="white"/>
<path d="M291.21 495.861H33.2002L0.512207 520.345V390.738C0.512472 385.895 2.43662 381.25 5.86138 377.826C9.28614 374.401 13.931 372.477 18.7742 372.477H291.21C296.053 372.477 300.698 374.401 304.123 377.826C307.547 381.25 309.471 385.895 309.471 390.738V477.6C309.471 482.443 307.547 487.088 304.122 490.512C300.698 493.937 296.053 495.861 291.21 495.861Z" fill="#F4F4F4"/>
<path d="M286.4 399.936H23.5882C23.3861 399.936 23.1923 399.856 23.0494 399.713C22.9065 399.57 22.8262 399.376 22.8262 399.174C22.8262 398.972 22.9065 398.778 23.0494 398.635C23.1923 398.492 23.3861 398.412 23.5882 398.412H286.4C286.602 398.412 286.796 398.492 286.939 398.635C287.082 398.778 287.162 398.972 287.162 399.174C287.162 399.376 287.082 399.57 286.939 399.713C286.796 399.856 286.602 399.936 286.4 399.936Z" fill="white"/>
<path d="M286.4 424.507H23.5884C23.4861 424.511 23.3841 424.494 23.2885 424.457C23.1928 424.421 23.1056 424.365 23.0319 424.294C22.9582 424.223 22.8995 424.138 22.8595 424.044C22.8195 423.949 22.7988 423.848 22.7988 423.746C22.7988 423.643 22.8195 423.542 22.8595 423.448C22.8995 423.353 22.9582 423.268 23.0319 423.197C23.1056 423.126 23.1928 423.071 23.2885 423.034C23.3841 422.997 23.4861 422.98 23.5884 422.984H286.4C286.598 422.991 286.784 423.075 286.921 423.217C287.058 423.359 287.135 423.548 287.135 423.746C287.135 423.943 287.058 424.133 286.921 424.275C286.784 424.417 286.598 424.5 286.4 424.507Z" fill="white"/>
<path d="M286.4 449.078H23.5884C23.4861 449.082 23.3841 449.065 23.2885 449.028C23.1928 448.992 23.1056 448.936 23.0319 448.865C22.9582 448.794 22.8995 448.709 22.8595 448.615C22.8195 448.52 22.7988 448.419 22.7988 448.317C22.7988 448.214 22.8195 448.113 22.8595 448.019C22.8995 447.924 22.9582 447.839 23.0319 447.768C23.1056 447.697 23.1928 447.641 23.2885 447.605C23.3841 447.568 23.4861 447.551 23.5884 447.555H286.4C286.598 447.562 286.784 447.646 286.921 447.788C287.058 447.93 287.135 448.119 287.135 448.317C287.135 448.514 287.058 448.704 286.921 448.846C286.784 448.988 286.598 449.071 286.4 449.078Z" fill="white"/>
<path d="M240.7 473.65H23.5882C23.3861 473.65 23.1923 473.57 23.0494 473.427C22.9065 473.284 22.8262 473.09 22.8262 472.888C22.8262 472.686 22.9065 472.492 23.0494 472.349C23.1923 472.206 23.3861 472.126 23.5882 472.126H240.7C240.902 472.126 241.096 472.206 241.239 472.349C241.382 472.492 241.462 472.686 241.462 472.888C241.462 473.09 241.382 473.284 241.239 473.427C241.096 473.57 240.902 473.65 240.7 473.65Z" fill="white"/>
<path d="M455.269 579.3H762.886L801.863 608.5V453.968C801.862 448.194 799.567 442.658 795.484 438.575C791.401 434.493 785.864 432.2 780.09 432.2H455.269C449.496 432.201 443.96 434.495 439.878 438.577C435.795 442.659 433.501 448.195 433.5 453.968V557.53C433.501 563.303 435.795 568.84 439.877 572.923C443.959 577.005 449.496 579.299 455.269 579.3Z" fill="#F4F4F4"/>
<path d="M461.009 464.934H774.35C774.586 464.926 774.809 464.827 774.973 464.658C775.137 464.488 775.229 464.261 775.229 464.026C775.229 463.79 775.137 463.563 774.973 463.394C774.809 463.224 774.586 463.125 774.35 463.117H461.009C460.773 463.125 460.55 463.224 460.386 463.394C460.222 463.563 460.13 463.79 460.13 464.026C460.13 464.261 460.222 464.488 460.386 464.658C460.55 464.827 460.773 464.926 461.009 464.934Z" fill="white"/>
<path d="M461.009 494.23H774.35C774.586 494.222 774.809 494.123 774.973 493.954C775.137 493.784 775.229 493.557 775.229 493.322C775.229 493.086 775.137 492.859 774.973 492.69C774.809 492.52 774.586 492.421 774.35 492.413H461.009C460.773 492.421 460.55 492.52 460.386 492.69C460.222 492.859 460.13 493.086 460.13 493.322C460.13 493.557 460.222 493.784 460.386 493.954C460.55 494.123 460.773 494.222 461.009 494.23Z" fill="white"/>
<path d="M461.009 523.526H774.35C774.586 523.518 774.809 523.419 774.973 523.25C775.137 523.08 775.229 522.853 775.229 522.617C775.229 522.382 775.137 522.155 774.973 521.985C774.809 521.816 774.586 521.717 774.35 521.709H461.009C460.773 521.717 460.55 521.816 460.386 521.985C460.222 522.155 460.13 522.382 460.13 522.617C460.13 522.853 460.222 523.08 460.386 523.25C460.55 523.419 460.773 523.518 461.009 523.526Z" fill="white"/>
<path d="M515.493 552.822H774.35C774.586 552.814 774.809 552.715 774.973 552.546C775.137 552.376 775.229 552.149 775.229 551.914C775.229 551.678 775.137 551.451 774.973 551.282C774.809 551.112 774.586 551.013 774.35 551.005H515.493C515.257 551.013 515.034 551.112 514.87 551.282C514.706 551.451 514.614 551.678 514.614 551.914C514.614 552.149 514.706 552.376 514.87 552.546C515.034 552.715 515.257 552.814 515.493 552.822Z" fill="white"/>
<path d="M701.659 314.578H959.665L992.356 339.063V209.455C992.356 204.613 990.433 199.969 987.01 196.544C983.586 193.12 978.943 191.195 974.1 191.194H701.659C696.817 191.195 692.173 193.119 688.748 196.544C685.324 199.968 683.401 204.612 683.4 209.455V296.316C683.4 301.159 685.324 305.804 688.748 309.228C692.172 312.653 696.816 314.577 701.659 314.578Z" fill="#F4F4F4"/>
<path d="M706.472 218.653H969.281C969.484 218.653 969.677 218.573 969.82 218.43C969.963 218.287 970.043 218.093 970.043 217.891C970.043 217.689 969.963 217.495 969.82 217.352C969.677 217.209 969.484 217.129 969.281 217.129H706.472C706.27 217.129 706.076 217.209 705.934 217.352C705.791 217.495 705.71 217.689 705.71 217.891C705.71 218.093 705.791 218.287 705.934 218.43C706.076 218.573 706.27 218.653 706.472 218.653Z" fill="white"/>
<path d="M706.472 243.224H969.281C969.478 243.217 969.665 243.134 969.802 242.992C969.939 242.849 970.016 242.66 970.016 242.463C970.016 242.265 969.939 242.076 969.802 241.934C969.665 241.792 969.478 241.708 969.281 241.701H706.472C706.275 241.708 706.088 241.792 705.951 241.934C705.814 242.076 705.738 242.265 705.738 242.463C705.738 242.66 705.814 242.849 705.951 242.992C706.088 243.134 706.275 243.217 706.472 243.224Z" fill="white"/>
<path d="M706.472 267.8H969.281C969.478 267.793 969.665 267.71 969.802 267.568C969.939 267.426 970.016 267.236 970.016 267.039C970.016 266.841 969.939 266.652 969.802 266.51C969.665 266.368 969.478 266.284 969.281 266.277H706.472C706.275 266.284 706.088 266.368 705.951 266.51C705.814 266.652 705.738 266.841 705.738 267.039C705.738 267.236 705.814 267.426 705.951 267.568C706.088 267.71 706.275 267.793 706.472 267.8Z" fill="white"/>
<path d="M752.17 292.367H969.281C969.479 292.36 969.665 292.277 969.802 292.135C969.939 291.993 970.016 291.803 970.016 291.606C970.016 291.408 969.939 291.219 969.802 291.077C969.665 290.935 969.479 290.851 969.281 290.844H752.17C752.068 290.84 751.966 290.857 751.871 290.894C751.775 290.931 751.688 290.986 751.614 291.057C751.54 291.128 751.482 291.213 751.442 291.308C751.402 291.402 751.381 291.503 751.381 291.606C751.381 291.708 751.402 291.809 751.442 291.904C751.482 291.998 751.54 292.083 751.614 292.154C751.688 292.225 751.775 292.281 751.871 292.317C751.966 292.354 752.068 292.371 752.17 292.367Z" fill="white"/>
<path d="M89.194 457.365L604.758 457.365C618.401 457.365 629.461 446.305 629.461 432.662V25.904C629.461 12.2609 618.401 1.20099 604.758 1.20099L89.194 1.20099C75.5509 1.20099 64.491 12.2609 64.491 25.904V432.662C64.491 446.305 75.5509 457.365 89.194 457.365Z" fill="white"/>
<path d="M63.667 432.662V25.9051C63.6747 19.1372 66.3666 12.6488 71.1522 7.86321C75.9377 3.07764 82.4262 0.385727 89.194 0.378052H604.758C611.526 0.385991 618.014 3.07798 622.8 7.8635C627.585 12.649 630.277 19.1373 630.285 25.9051V432.662C630.277 439.43 627.585 445.918 622.8 450.704C618.014 455.489 611.526 458.181 604.758 458.189H89.194C82.4261 458.182 75.9375 455.49 71.1519 450.704C66.3662 445.919 63.6744 439.43 63.667 432.662ZM89.194 2.02505C82.8628 2.0322 76.793 4.55041 72.3162 9.02724C67.8394 13.5041 65.3211 19.5739 65.314 25.9051V432.662C65.3211 438.993 67.8394 445.063 72.3162 449.54C76.793 454.017 82.8628 456.535 89.194 456.542H604.758C611.089 456.535 617.159 454.017 621.636 449.54C626.113 445.063 628.631 438.993 628.638 432.662V25.9051C628.631 19.5738 626.113 13.5038 621.636 9.02694C617.159 4.55006 611.089 2.03193 604.758 2.02505H89.194Z" fill="#4E70F8"/>
<path d="M64.4912 25.9001V50.7591H629.458V25.9001C629.458 19.3492 626.856 13.0667 622.224 8.43454C617.592 3.80239 611.309 1.20007 604.758 1.20007H89.1942C85.9503 1.19968 82.7381 1.83827 79.741 3.07939C76.7439 4.3205 74.0207 6.13983 71.7267 8.43348C69.4328 10.7271 67.6132 13.4502 66.3717 16.4471C65.1302 19.444 64.4912 22.6562 64.4912 25.9001Z" fill="#4E70F8"/>
<path d="M514.807 133.706C514.967 133.09 515.252 132.513 515.642 132.011C516.033 131.508 516.522 131.091 517.079 130.784C517.637 130.477 518.251 130.286 518.885 130.224C519.518 130.163 520.158 130.23 520.764 130.424C521.924 130.839 522.884 131.679 523.449 132.774C524.014 133.869 524.142 135.138 523.807 136.324L522.207 142.447L536.107 125.438C537.62 123.52 540.707 122.133 542.743 123.973C543.573 124.629 544.156 125.548 544.397 126.578C544.639 127.609 544.523 128.691 544.07 129.647C544.093 129.657 544.115 129.67 544.136 129.685C544.148 129.698 544.16 129.712 544.171 129.727L546.504 126.769C546.934 126.224 547.48 125.782 548.101 125.474C548.723 125.166 549.405 124.999 550.099 124.987C550.793 124.974 551.481 125.115 552.113 125.401C552.746 125.686 553.307 126.108 553.757 126.637C554.457 127.494 554.839 128.567 554.839 129.673C554.839 130.779 554.457 131.852 553.757 132.709L552.764 133.968C552.788 134.015 552.803 134.066 552.809 134.118C553.668 133.429 554.742 133.065 555.842 133.09C556.943 133.114 558 133.526 558.827 134.253C559.724 135.099 560.266 136.253 560.343 137.483C560.421 138.713 560.029 139.927 559.246 140.879L556.806 143.973C556.858 143.955 556.913 143.947 556.968 143.952C557.023 143.956 557.077 143.971 557.126 143.997C557.175 144.023 557.217 144.059 557.252 144.102C557.286 144.146 557.311 144.196 557.325 144.249C558.244 143.856 559.265 143.767 560.239 143.995C561.212 144.224 562.087 144.758 562.735 145.519C563.435 146.376 563.817 147.449 563.817 148.555C563.817 149.661 563.435 150.734 562.735 151.591L541.928 177.968C539.017 181.657 535.07 184.394 530.594 185.826C526.118 187.258 521.316 187.322 516.804 186.008L502.275 181.775L514.807 133.706Z" fill="#FFA17C"/>
<g opacity="0.2">
<path d="M530.4 146.555C530.489 146.624 530.601 146.656 530.714 146.643C530.826 146.63 530.928 146.574 531 146.487L544.2 130.294C544.272 130.205 544.306 130.091 544.295 129.977C544.283 129.863 544.227 129.758 544.138 129.686C544.049 129.614 543.935 129.579 543.821 129.591C543.707 129.603 543.602 129.659 543.53 129.748L530.33 145.941C530.258 146.03 530.224 146.144 530.235 146.258C530.247 146.372 530.303 146.476 530.392 146.549L530.4 146.555Z" fill="#0C0C0C"/>
</g>
<g opacity="0.2">
<path d="M537.385 152.575C537.474 152.644 537.587 152.676 537.699 152.663C537.811 152.65 537.914 152.594 537.985 152.507L552.719 134.436C552.792 134.347 552.826 134.233 552.814 134.119C552.803 134.004 552.746 133.899 552.657 133.827C552.567 133.759 552.454 133.727 552.341 133.739C552.228 133.75 552.124 133.804 552.049 133.889L537.315 151.96C537.243 152.049 537.208 152.163 537.22 152.277C537.232 152.391 537.288 152.496 537.377 152.569L537.385 152.575Z" fill="#0C0C0C"/>
</g>
<g opacity="0.2">
<path d="M544.908 159.138C544.997 159.207 545.11 159.239 545.222 159.226C545.334 159.214 545.437 159.157 545.508 159.07L557.262 144.655C557.328 144.565 557.357 144.454 557.343 144.343C557.329 144.233 557.274 144.132 557.187 144.062C557.101 143.991 556.991 143.957 556.879 143.966C556.768 143.975 556.665 144.026 556.591 144.109L544.838 158.524C544.802 158.568 544.775 158.619 544.759 158.673C544.743 158.727 544.737 158.784 544.743 158.841C544.749 158.897 544.766 158.952 544.792 159.002C544.819 159.052 544.856 159.096 544.9 159.132L544.908 159.138Z" fill="#0C0C0C"/>
</g>
<path d="M243.857 98.192C243.857 98.192 238.424 125.57 230.907 134.782C209.267 161.301 199.862 193.082 215.57 212.362C231.278 231.642 345.502 246.746 359.231 208.877C370.789 176.996 355.61 171.431 355.331 143.854C355.204 131.376 353.811 105.064 353.811 105.064" fill="#0A0A0A"/>
<path d="M335.709 193.738C335.509 193.712 333.303 230.338 290.76 227.138C261.308 224.932 250.807 193.684 250.132 193.684C253.307 193.009 258.654 192.027 260.065 191.275C264.702 188.783 270.441 186.19 271.936 177.184C272.797 171.993 271.336 145.437 271.785 140.184L316.994 150.274C316.363 161.366 311.941 187.081 327.438 191.632C330.016 192.388 332.793 193.08 335.709 193.738Z" fill="#FFA17C"/>
<path opacity="0.5" d="M317.628 181.126C316.92 178.844 316.464 176.491 316.268 174.109C315.773 168.675 315.873 163.202 316.568 157.79C307.379 156.549 298.723 152.757 291.581 146.843C290.742 149.943 286.125 163.489 287.403 166.436C289.816 172.006 301.17 181.126 317.628 181.126Z" fill="#0C0C0C"/>
<path d="M309.773 172.405C291.873 171.816 269.925 161.77 268.25 137.616L266.739 115.816C265.064 91.662 276.392 71.201 299.139 69.624C321.881 68.047 340.239 86.449 341.913 110.603L342.582 120.252C343.221 129.525 341.705 173.456 309.773 172.405Z" fill="#FFA17C"/>
<path d="M307.93 145.027C310.43 146.267 315.63 147.927 322.846 145.416C323.633 145.142 324.233 146.039 323.834 146.926C322.304 150.326 318.806 154.25 312.665 152.906C311.089 152.634 309.642 151.859 308.543 150.697C307.443 149.534 306.749 148.047 306.565 146.458C306.4 145.549 307.228 144.679 307.93 145.027Z" fill="white"/>
<path d="M336.253 122.122C337.804 122.122 339.061 120.865 339.061 119.314C339.061 117.763 337.804 116.506 336.253 116.506C334.702 116.506 333.445 117.763 333.445 119.314C333.445 120.865 334.702 122.122 336.253 122.122Z" fill="#0C0C0C"/>
<path d="M307.432 122.122C308.983 122.122 310.24 120.865 310.24 119.314C310.24 117.763 308.983 116.506 307.432 116.506C305.881 116.506 304.624 117.763 304.624 119.314C304.624 120.865 305.881 122.122 307.432 122.122Z" fill="#0C0C0C"/>
<path opacity="0.5" d="M320.686 140.481H320.73C321.652 140.411 322.569 140.289 323.478 140.118C324.836 139.852 326.631 139.358 326.548 138.151C326.448 136.774 321.653 122.186 321.106 120.527C321.054 120.388 320.95 120.274 320.815 120.21C320.681 120.146 320.527 120.136 320.386 120.183C320.245 120.229 320.127 120.329 320.058 120.46C319.988 120.592 319.972 120.745 320.013 120.888C322.062 127.101 325.336 137.304 325.4 138.23C325.2 138.63 322.937 139.174 320.65 139.33C320.503 139.342 320.366 139.41 320.267 139.52C320.169 139.631 320.116 139.774 320.121 139.922C320.126 140.07 320.187 140.21 320.292 140.314C320.397 140.418 320.538 140.477 320.686 140.48V140.481Z" fill="#0C0C0C"/>
<path d="M248.064 121.145L268.437 119.845C284.262 115.521 291.923 89.918 291.923 89.918C291.923 89.918 308.151 109.968 353.808 105.06C353.808 105.06 352.231 42.011 284.425 52.265C262.561 55.571 244.837 75.112 243.355 103.857C242.316 124 248.064 121.145 248.064 121.145Z" fill="#0A0A0A"/>
<path d="M270.173 144.877C263.262 145.356 257.146 138.351 256.667 131.439C256.188 124.527 261.526 120.328 268.437 119.849L272.32 124.233L276.12 144.465L270.173 144.877Z" fill="#FFA17C"/>
<path d="M326.594 108.964C328.692 107.93 331.029 107.479 333.361 107.658C334.511 107.738 335.643 107.992 336.718 108.409C337.785 108.818 338.797 109.359 339.728 110.021C339.837 110.096 339.914 110.21 339.94 110.339C339.967 110.469 339.942 110.604 339.871 110.715C339.8 110.827 339.688 110.906 339.559 110.937C339.43 110.968 339.295 110.947 339.181 110.879L339.147 110.859C338.27 110.286 337.325 109.826 336.333 109.488C335.351 109.15 334.324 108.961 333.286 108.929C331.225 108.851 329.179 109.32 327.358 110.288L327.307 110.316C327.13 110.414 326.921 110.438 326.726 110.381C326.531 110.325 326.367 110.194 326.269 110.017C326.171 109.839 326.147 109.63 326.203 109.435C326.259 109.241 326.391 109.076 326.568 108.978L326.594 108.964Z" fill="#0C0C0C"/>
<path d="M308.29 111.663C306.355 110.948 304.266 110.756 302.233 111.109C301.209 111.279 300.216 111.603 299.289 112.071C298.351 112.537 297.475 113.12 296.682 113.805L296.653 113.829C296.602 113.872 296.543 113.905 296.479 113.925C296.416 113.946 296.349 113.953 296.282 113.948C296.215 113.942 296.15 113.924 296.091 113.893C296.032 113.863 295.979 113.82 295.936 113.769C295.892 113.718 295.86 113.659 295.839 113.596C295.819 113.532 295.811 113.465 295.817 113.398C295.822 113.332 295.841 113.267 295.871 113.207C295.902 113.148 295.944 113.095 295.995 113.052C296.83 112.272 297.76 111.6 298.763 111.052C299.773 110.495 300.86 110.093 301.989 109.859C304.276 109.371 306.653 109.506 308.87 110.25C309.062 110.316 309.219 110.456 309.308 110.638C309.396 110.821 309.409 111.031 309.343 111.222C309.276 111.414 309.137 111.572 308.954 111.66C308.772 111.749 308.562 111.761 308.37 111.695L308.345 111.686L308.29 111.663Z" fill="#0C0C0C"/>
<path d="M291.729 87.124C291.729 87.124 295.364 113.1 268.444 119.314" stroke="#0C0C0C" stroke-width="0.5" stroke-miterlimit="10"/>
<path opacity="0.1" d="M307.942 136.231C307.965 134.065 305.589 132.283 302.635 132.252C299.681 132.22 297.267 133.951 297.244 136.118C297.221 138.284 299.597 140.066 302.551 140.097C305.505 140.129 307.919 138.398 307.942 136.231Z" fill="#0C0C0C"/>
<path opacity="0.1" d="M334.4 135.568C334.384 137.732 336.759 139.512 339.713 139.547C340.224 139.553 340.733 139.505 341.234 139.405C341.7 136.882 342.026 134.439 342.246 132.167C341.464 131.86 340.633 131.702 339.793 131.701C336.834 131.665 334.421 133.4 334.4 135.568Z" fill="#0C0C0C"/>
<path d="M193.424 411.323L185.725 458.256H377.733L370.556 411.04L193.424 411.323Z" fill="#262626"/>
<path d="M289.784 218.038C260.311 216.649 259.07 191.638 259.07 191.638C259.07 191.638 244.47 192.582 234.759 193.895C218.865 196.046 208.381 201.435 200.037 209.779C192.275 217.541 187.55 225.938 192.55 279.554C196.171 318.376 193.424 411.328 193.424 411.328L370.556 411.045C370.556 411.045 387.083 291.845 388.57 274.367C391.407 241.006 385.36 212.804 378.434 205.878C364.194 191.638 339.68 191.638 327.434 191.64C327.238 191.635 329.921 219.93 289.784 218.038Z" fill="#872AD0"/>
<path d="M500.451 155.829L443.173 260.822L374.823 202.883L332.793 252.466L431.572 336.2L432.278 336.807C435.997 339.92 440.376 342.145 445.083 343.313C449.79 344.481 454.701 344.561 459.443 343.547C464.186 342.533 468.635 340.451 472.453 337.461C476.271 334.471 479.357 330.65 481.478 326.288L551.439 182.088L500.451 155.829Z" fill="#872AD0"/>
<path d="M210.542 368.035L221.325 456.542H156.332L145.492 362.515C145.456 358.486 146.168 354.485 147.592 350.715L194.662 217.836L256.452 238.846L210.542 368.035Z" fill="#872AD0"/>
<path d="M220.829 456.603L210.031 367.969L210.077 367.851L239.782 292.465L240.713 292.833L211.054 368.1L221.821 456.482L220.829 456.603Z" fill="#0C0C0C"/>
<path d="M388.834 270.425L385.249 298.917L386.107 299.025L389.692 270.533L388.834 270.425Z" fill="#0C0C0C"/>
<path d="M1022.58 913.434H22.157C21.9714 913.434 21.7933 913.36 21.6621 913.229C21.5308 913.098 21.457 912.92 21.457 912.734C21.457 912.549 21.5308 912.37 21.6621 912.239C21.7933 912.108 21.9714 912.034 22.157 912.034H1022.58C1022.76 912.034 1022.94 912.108 1023.07 912.239C1023.2 912.37 1023.28 912.549 1023.28 912.734C1023.28 912.92 1023.2 913.098 1023.07 913.229C1022.94 913.36 1022.76 913.434 1022.58 913.434Z" fill="#4E70F8"/>
<g opacity="0.65">
<path d="M1022.58 913.434H22.157C21.9714 913.434 21.7933 913.36 21.6621 913.229C21.5308 913.098 21.457 912.92 21.457 912.734C21.457 912.549 21.5308 912.37 21.6621 912.239C21.7933 912.108 21.9714 912.034 22.157 912.034H1022.58C1022.76 912.034 1022.94 912.108 1023.07 912.239C1023.2 912.37 1023.28 912.549 1023.28 912.734C1023.28 912.92 1023.2 913.098 1023.07 913.229C1022.94 913.36 1022.76 913.434 1022.58 913.434Z" fill="#4E70F8"/>
</g>
<path opacity="0.49" d="M346.976 434.281C372.84 434.281 393.806 413.315 393.806 387.451C393.806 361.588 372.84 340.621 346.976 340.621C321.113 340.621 300.146 361.588 300.146 387.451C300.146 413.315 321.113 434.281 346.976 434.281Z" fill="white"/>
<path d="M346.976 422.131C366.129 422.131 381.656 406.604 381.656 387.451C381.656 368.298 366.129 352.771 346.976 352.771C327.823 352.771 312.296 368.298 312.296 387.451C312.296 406.604 327.823 422.131 346.976 422.131Z" fill="white"/>
<path d="M370.348 398.864C370.751 399.133 371.034 399.547 371.141 400.02C371.247 400.493 371.167 400.988 370.918 401.404L368.648 405.187C368.046 406.21 367.074 406.962 365.932 407.287C362.159 408.323 353.839 408.531 340.503 395.196C327.167 381.861 327.376 373.538 328.411 369.766C328.736 368.624 329.488 367.651 330.511 367.048L334.295 364.779C334.71 364.53 335.206 364.45 335.679 364.557C336.152 364.663 336.565 364.948 336.834 365.351L342.866 374.399C343.129 374.795 343.233 375.277 343.157 375.746C343.081 376.216 342.83 376.639 342.455 376.932L339.067 379.565C338.71 379.839 338.463 380.232 338.371 380.672C338.28 381.113 338.349 381.571 338.567 381.965C339.561 383.753 340.504 385.86 345.167 390.531C349.83 395.202 351.946 396.138 353.734 397.131C354.127 397.349 354.585 397.418 355.024 397.326C355.464 397.234 355.856 396.988 356.129 396.631L358.764 393.245C359.056 392.869 359.479 392.618 359.949 392.542C360.419 392.465 360.901 392.569 361.297 392.833L370.348 398.864Z" fill="#0CBC8B"/>
<path d="M880.82 495.307C831.027 495.307 790.663 508.891 790.663 525.648V561.769H970.978V525.648C970.978 508.891 930.613 495.307 880.82 495.307Z" fill="#872AD0"/>
<path opacity="0.49" d="M880.82 495.307C831.027 495.307 790.663 508.891 790.663 525.648V561.769H970.978V525.648C970.978 508.891 930.613 495.307 880.82 495.307Z" fill="white"/>
<path opacity="0.49" d="M946.417 525.652V561.767H790.661V525.652C790.661 510.292 824.561 497.602 868.539 495.596C912.521 497.6 946.417 510.292 946.417 525.652Z" fill="white"/>
<path d="M970.977 912.743L973.977 909.717L970.977 558.565L967.977 561.59L970.117 808.994L863.304 810.809L861.149 561.565L858.149 561.59L860.304 810.86L795.825 811.956L793.661 561.565L790.661 558.59L793.661 909.743L796.661 912.717L795.851 814.957L860.33 813.861L861.149 912.743L864.149 912.717L863.33 813.81L970.143 811.994L970.977 912.743Z" fill="#4E70F8"/>
<path d="M695.531 859.705C695.531 859.705 690.17 887.499 664.147 889.048C638.124 890.597 643.767 911.328 643.767 911.328H743.212V861.644L695.531 859.705Z" fill="#872AD0"/>
<path d="M752.269 776.11C752.269 776.11 759.726 803.416 737.059 816.293C714.392 829.17 728.607 845.28 728.607 845.28L817.839 801.38L795.908 756.8L752.269 776.11Z" fill="#872AD0"/>
<path d="M742.828 794.157L675.59 540.468C670.49 512.442 678.169 500.294 690 488.493C710.786 467.76 796.917 423.631 796.917 423.631L900.246 423.35C927.646 423.35 954.58 450.367 954.58 477.765C954.58 505.163 926.726 528.4 899.328 528.4L772.086 541.1L806.577 773.387L742.828 794.157Z" fill="#262626"/>
<path d="M806.577 773.383L792.999 681.935L724.207 723.899L742.828 794.157L806.577 773.383Z" fill="#0C0C0C"/>
<path d="M822.171 474.968C822.171 474.968 778.734 484.649 735.714 527.668C709.631 553.751 711.769 600.952 715.682 691.735L758.409 628.625L805.273 544.1L822.171 474.968Z" fill="#0C0C0C"/>
<path d="M972.568 423.319L902.395 422.988L902.368 423.912H881.12C881.12 423.912 827.896 472.891 785.042 503.754C753.872 526.202 734.857 547.604 733.211 570.93C729.2 627.791 683.963 870.3 683.963 870.3L752.044 880.61L811.787 590.798C811.787 590.798 905.212 547.731 926.821 532.742C947.169 518.628 961.542 513.173 968.275 497.771C979.905 471.165 972.568 423.319 972.568 423.319Z" fill="#262626"/>
<path d="M840.006 116.171C840.006 116.171 828.983 104.224 829.835 81.471C830.494 63.854 844.323 77.848 844.323 77.848C844.323 77.848 844.923 65.167 853.717 68.028C862.511 70.889 865.217 84.813 865.217 84.813" fill="#0C0C0C"/>
<path d="M900.091 77.916C900.091 77.916 943.991 90.816 916.826 148.552L912.817 148.1L904.679 147.184" fill="#0C0C0C"/>
<path d="M837.877 208.437C838.077 208.411 840.296 245.237 883.082 242.03C912.702 239.811 923.263 208.385 923.942 208.385C920.749 207.706 916.802 206.676 915.233 206.323C911.815 205.529 908.72 203.714 906.358 201.118C903.997 198.522 902.482 195.269 902.014 191.791C901.147 186.57 902.614 159.863 902.165 154.581L856.7 164.729C857.335 175.884 861.782 201.746 846.2 206.323C843.6 207.08 840.809 207.776 837.877 208.437Z" fill="#FFA17C"/>
<path d="M856.062 195.754C856.774 193.459 857.232 191.092 857.429 188.697C857.928 183.231 857.827 177.728 857.129 172.284C866.37 171.037 875.076 167.222 882.258 161.275C883.102 164.393 887.745 178.016 886.458 180.975C884.033 186.581 872.614 195.754 856.062 195.754Z" fill="#0C0C0C"/>
<path d="M863.484 184.028C881.421 185.64 904.565 178.311 909.206 154.407L913.394 132.838C918.036 108.938 909.243 87.1191 886.736 82.7491C864.229 78.3791 843.644 94.4901 839.003 118.394L837.149 127.943C836.569 131.233 836.214 134.558 836.087 137.896C835.687 146.715 835.11 160.13 839.352 170.044C843.356 179.4 852.024 183 863.484 184.028Z" fill="#FFA17C"/>
<path d="M850.149 158.34C856.827 159.111 863.571 157.635 869.316 154.145C869.516 154.025 869.745 153.964 869.977 153.97C870.21 153.975 870.436 154.047 870.629 154.176C870.823 154.305 870.975 154.487 871.069 154.7C871.163 154.913 871.194 155.148 871.159 155.378C870.519 159.314 868.207 166.496 859.858 167.018C854.469 167.355 850.786 163.049 848.959 160.218C848.831 160.022 848.763 159.793 848.762 159.559C848.761 159.325 848.827 159.096 848.952 158.898C849.077 158.7 849.257 158.543 849.469 158.444C849.681 158.345 849.917 158.309 850.149 158.34Z" fill="white"/>
<path d="M844.388 133.966C845.948 133.966 847.212 132.702 847.212 131.142C847.212 129.582 845.948 128.318 844.388 128.318C842.829 128.318 841.564 129.582 841.564 131.142C841.564 132.702 842.829 133.966 844.388 133.966Z" fill="#0C0C0C"/>
<path d="M871.844 137.176C873.404 137.176 874.669 135.912 874.669 134.352C874.669 132.792 873.404 131.528 871.844 131.528C870.285 131.528 869.021 132.792 869.021 134.352C869.021 135.912 870.285 137.176 871.844 137.176Z" fill="#0C0C0C"/>
<path d="M906.394 161.418C913.234 162.746 920.2 156.506 921.528 149.666C922.856 142.826 918.043 137.978 911.204 136.649L906.789 140.549L900.514 160.278L906.394 161.418Z" fill="#FFA17C"/>
<path d="M901.568 149.168C901.568 149.168 905.389 114.846 895.488 110.892C888.894 108.259 870.533 114.965 855.688 109.249C849.188 106.749 842.504 107.257 841.279 110.317C840.794 111.529 839.879 92.688 852.895 80.871C863.262 71.463 891.272 73.346 903.112 79.19C935.898 95.37 912.35 138.399 912.35 138.399L908.692 149.808L901.568 149.168Z" fill="#0C0C0C"/>
<path d="M856.563 151.9L856.518 151.893C854.318 151.471 850.661 150.517 850.975 148.867C851.238 147.5 857.804 133.461 858.553 131.867C858.583 131.797 858.627 131.733 858.682 131.68C858.738 131.627 858.803 131.586 858.875 131.559C858.947 131.532 859.023 131.519 859.1 131.522C859.176 131.525 859.251 131.543 859.321 131.576C859.39 131.608 859.452 131.655 859.504 131.712C859.555 131.769 859.594 131.835 859.619 131.908C859.644 131.98 859.654 132.057 859.648 132.134C859.643 132.21 859.622 132.285 859.588 132.353C856.675 138.569 852.277 148.153 852.099 149.084C852.241 149.515 854.45 150.334 856.733 150.772C856.877 150.801 857.004 150.884 857.089 151.004C857.173 151.124 857.208 151.273 857.186 151.418C857.165 151.563 857.088 151.695 856.971 151.785C856.855 151.875 856.709 151.917 856.563 151.902V151.9Z" fill="#0C0C0C"/>
<path d="M855 117.5C852.794 116.443 850.343 116 847.905 116.219C846.71 116.32 845.535 116.599 844.422 117.048C843.323 117.486 842.283 118.062 841.328 118.761C841.143 118.88 841.012 119.069 840.965 119.284C840.918 119.5 840.959 119.725 841.078 119.911C841.198 120.097 841.386 120.227 841.602 120.274C841.817 120.321 842.043 120.28 842.228 120.161L842.286 120.126C843.153 119.573 844.085 119.132 845.061 118.811C846.022 118.49 847.025 118.317 848.037 118.297C850.033 118.242 852.007 118.715 853.761 119.667L853.835 119.709C853.978 119.791 854.135 119.843 854.298 119.864C854.461 119.884 854.627 119.873 854.785 119.83C854.944 119.786 855.092 119.712 855.222 119.612C855.352 119.511 855.461 119.386 855.542 119.243C855.624 119.1 855.677 118.943 855.697 118.78C855.718 118.617 855.706 118.452 855.663 118.293C855.62 118.135 855.546 117.986 855.445 117.856C855.344 117.726 855.219 117.618 855.076 117.536C855.051 117.527 855.025 117.513 855 117.5Z" fill="#0C0C0C"/>
<path d="M871.191 121.872C873.113 121.334 875.143 121.312 877.076 121.81C878.059 122.055 878.998 122.447 879.863 122.973C880.744 123.503 881.555 124.141 882.276 124.873L882.323 124.917C882.479 125.072 882.688 125.159 882.907 125.16C883.127 125.161 883.337 125.076 883.494 124.922C883.65 124.769 883.74 124.56 883.743 124.341C883.746 124.122 883.663 123.91 883.511 123.752C882.735 122.858 881.85 122.066 880.876 121.393C879.891 120.708 878.808 120.175 877.664 119.81C875.338 119.055 872.851 118.94 870.464 119.479C870.141 119.555 869.861 119.756 869.686 120.037C869.511 120.319 869.455 120.659 869.531 120.983C869.607 121.306 869.807 121.586 870.089 121.761C870.371 121.936 870.711 121.992 871.034 121.916C871.059 121.91 871.084 121.904 871.109 121.896L871.191 121.872Z" fill="#0C0C0C"/>
<path d="M876.647 85.3321C879.559 78.1457 877.962 70.716 873.08 68.7373C868.197 66.7585 861.878 70.9801 858.966 78.1665C856.053 85.3529 857.65 92.7827 862.533 94.7614C867.416 96.7401 873.735 92.5184 876.647 85.3321Z" fill="#0C0C0C"/>
<path d="M784.718 289.52C786.066 305.352 795.618 404.13 796.918 423.631H972.492C973.5 406.042 978.03 329.131 981.856 294.736C985.507 261.915 990.626 246.979 986.42 236.779C979 218.79 955.39 210.757 939.4 208.592C929.636 207.27 914.951 206.323 914.951 206.323C914.951 206.323 913.708 231.476 884.06 232.875C843.7 234.775 846.395 206.323 846.195 206.323C839.657 206.323 804.067 211.077 795.168 216.878C782.599 225.07 778.884 236.235 778.737 246.492C778.569 258.3 783.187 271.563 784.718 289.52Z" fill="#872AD0"/>
<path d="M630.071 204.836C629.783 204.269 629.382 203.766 628.893 203.359C628.404 202.952 627.837 202.648 627.227 202.467C626.616 202.286 625.976 202.231 625.344 202.306C624.712 202.381 624.101 202.584 623.55 202.902C622.505 203.556 621.748 204.582 621.43 205.773C621.112 206.964 621.258 208.231 621.838 209.318L624.705 214.958L607.488 201.312C605.6 199.762 602.288 199.067 600.688 201.299C600.017 202.118 599.644 203.14 599.628 204.198C599.613 205.256 599.957 206.289 600.604 207.126C600.584 207.141 600.565 207.158 600.548 207.177C600.539 207.193 600.53 207.209 600.523 207.226L597.611 204.835C597.075 204.395 596.448 204.079 595.774 203.911C595.101 203.743 594.399 203.726 593.719 203.862C593.038 203.997 592.396 204.283 591.84 204.696C591.283 205.11 590.825 205.643 590.498 206.255C589.998 207.242 589.855 208.371 590.091 209.452C590.328 210.533 590.931 211.499 591.798 212.186L593.037 213.204C593.024 213.255 593.02 213.308 593.025 213.36C592.039 212.871 590.912 212.744 589.842 213.004C588.772 213.263 587.827 213.891 587.174 214.777C586.479 215.795 586.197 217.039 586.384 218.258C586.571 219.476 587.213 220.578 588.181 221.341L591.226 223.841C591.158 223.836 591.089 223.847 591.026 223.874C590.962 223.901 590.906 223.942 590.862 223.995C590.813 224.06 590.783 224.139 590.778 224.221C589.796 224.033 588.779 224.165 587.877 224.597C586.975 225.029 586.234 225.738 585.764 226.621C585.264 227.608 585.121 228.737 585.357 229.818C585.594 230.899 586.197 231.865 587.064 232.552L613.026 253.874C616.659 256.856 621.099 258.686 625.777 259.129C630.456 259.573 635.161 258.609 639.288 256.361L652.577 249.122L630.071 204.836Z" fill="#FFA17C"/>
<g opacity="0.2">
<path d="M617.579 220.721C617.507 220.807 617.404 220.862 617.292 220.874C617.18 220.885 617.068 220.853 616.979 220.783L600.622 207.783C600.578 207.748 600.541 207.704 600.513 207.654C600.486 207.605 600.468 207.55 600.462 207.494C600.455 207.437 600.46 207.38 600.476 207.326C600.491 207.271 600.518 207.22 600.553 207.176C600.588 207.131 600.632 207.094 600.682 207.067C600.731 207.039 600.786 207.021 600.842 207.015C600.899 207.009 600.956 207.013 601.01 207.029C601.065 207.045 601.116 207.071 601.16 207.106L617.517 220.106C617.562 220.141 617.599 220.185 617.626 220.235C617.654 220.284 617.672 220.339 617.678 220.395C617.685 220.451 617.68 220.509 617.664 220.563C617.649 220.618 617.623 220.669 617.587 220.713L617.579 220.721Z" fill="#0C0C0C"/>
</g>
<g opacity="0.2">
<path d="M612.046 228.093C611.974 228.179 611.871 228.234 611.759 228.246C611.647 228.257 611.535 228.225 611.446 228.155L593.19 213.649C593.146 213.614 593.109 213.57 593.081 213.521C593.054 213.471 593.036 213.416 593.03 213.36C593.023 213.304 593.028 213.246 593.044 213.192C593.059 213.137 593.086 213.086 593.121 213.042C593.195 212.956 593.298 212.9 593.411 212.887C593.524 212.874 593.637 212.905 593.728 212.972L611.983 227.478C612.028 227.513 612.065 227.557 612.092 227.607C612.12 227.656 612.137 227.711 612.144 227.767C612.15 227.824 612.145 227.881 612.13 227.935C612.114 227.99 612.088 228.041 612.052 228.085L612.046 228.093Z" fill="#0C0C0C"/>
</g>
<g opacity="0.2">
<path d="M606.1 236.113C606.028 236.199 605.925 236.254 605.813 236.265C605.701 236.277 605.589 236.244 605.5 236.174L590.936 224.6C590.846 224.529 590.789 224.425 590.776 224.311C590.763 224.197 590.795 224.082 590.867 223.993C590.938 223.903 591.042 223.845 591.156 223.832C591.27 223.819 591.385 223.852 591.474 223.923L606.036 235.493C606.126 235.565 606.184 235.669 606.197 235.783C606.21 235.897 606.177 236.011 606.105 236.101L606.1 236.113Z" fill="#0C0C0C"/>
</g>
<path d="M878.726 460.377C878.107 460.523 877.523 460.793 877.012 461.172C876.5 461.55 876.071 462.029 875.75 462.579C875.43 463.129 875.225 463.738 875.148 464.37C875.07 465.001 875.123 465.642 875.301 466.253C875.688 467.424 876.504 468.404 877.586 468.995C878.668 469.586 879.933 469.745 881.127 469.438L887.286 467.991L869.945 481.48C867.991 482.946 866.531 485.995 868.32 488.08C868.956 488.926 869.861 489.532 870.885 489.798C871.91 490.064 872.994 489.974 873.961 489.544C873.971 489.568 873.983 489.59 873.997 489.611C874.01 489.624 874.024 489.636 874.038 489.647L871.025 491.908C870.471 492.325 870.015 492.859 869.692 493.473C869.368 494.087 869.185 494.765 869.156 495.459C869.127 496.152 869.251 496.843 869.521 497.482C869.791 498.122 870.2 498.693 870.717 499.155C871.558 499.875 872.621 500.283 873.727 500.309C874.833 500.335 875.914 499.978 876.787 499.299L878.07 498.337C878.117 498.362 878.167 498.378 878.218 498.385C877.509 499.227 877.119 500.292 877.117 501.393C877.115 502.494 877.502 503.561 878.208 504.405C879.032 505.322 880.174 505.892 881.402 505.999C882.63 506.107 883.853 505.744 884.823 504.984L887.975 502.619C887.954 502.685 887.948 502.754 887.959 502.822C887.97 502.89 887.997 502.955 888.038 503.01C888.091 503.074 888.16 503.12 888.238 503.145C887.823 504.055 887.71 505.073 887.915 506.052C888.12 507.031 888.632 507.918 889.377 508.585C890.218 509.305 891.281 509.712 892.387 509.738C893.493 509.764 894.574 509.408 895.447 508.728L922.32 488.565C926.08 485.745 928.911 481.866 930.452 477.425C931.992 472.985 932.171 468.186 930.966 463.643L927.087 449.016L878.726 460.377Z" fill="#FFA17C"/>
<g opacity="0.2">
<path d="M891.195 476.281C891.262 476.372 891.291 476.486 891.275 476.598C891.26 476.71 891.201 476.812 891.112 476.881L874.601 489.686C874.556 489.721 874.504 489.747 874.45 489.762C874.395 489.777 874.338 489.781 874.281 489.774C874.225 489.766 874.171 489.748 874.121 489.72C874.072 489.692 874.029 489.654 873.994 489.61C873.959 489.565 873.934 489.514 873.919 489.459C873.904 489.404 873.9 489.347 873.907 489.291C873.914 489.234 873.932 489.18 873.96 489.131C873.988 489.081 874.026 489.038 874.071 489.003L890.582 476.2C890.672 476.13 890.787 476.099 890.901 476.113C891.015 476.127 891.118 476.187 891.189 476.277L891.195 476.281Z" fill="#0C0C0C"/>
</g>
<g opacity="0.2">
<path d="M897.043 483.406C897.111 483.497 897.14 483.611 897.124 483.723C897.109 483.835 897.05 483.937 896.96 484.006L878.538 498.3C878.447 498.37 878.333 498.401 878.219 498.387C878.105 498.373 878.002 498.314 877.931 498.224C877.865 498.132 877.836 498.018 877.85 497.905C877.865 497.793 877.921 497.69 878.008 497.617L896.43 483.325C896.521 483.255 896.636 483.224 896.749 483.238C896.863 483.252 896.966 483.311 897.037 483.401L897.043 483.406Z" fill="#0C0C0C"/>
</g>
<g opacity="0.2">
<path d="M903.422 491.085C903.49 491.176 903.519 491.29 903.504 491.402C903.489 491.514 903.43 491.616 903.34 491.685L888.64 503.085C888.549 503.15 888.437 503.177 888.326 503.161C888.215 503.145 888.115 503.086 888.047 502.998C887.978 502.909 887.947 502.798 887.958 502.687C887.97 502.575 888.025 502.473 888.11 502.401L902.81 491C902.901 490.93 903.015 490.898 903.129 490.913C903.243 490.927 903.346 490.986 903.416 491.076L903.422 491.085Z" fill="#0C0C0C"/>
</g>
<path d="M1044.6 357.855L1044.27 357.173L985.87 236.443L927.356 264.748L975.717 364.725L892.258 448.458L932.545 490.558L1037.48 394.804C1042.48 390.229 1045.88 384.164 1047.16 377.508C1048.44 370.853 1047.54 363.961 1044.6 357.855Z" fill="#872AD0"/>
<path d="M917 424.131C916.901 424.131 916.805 424.101 916.723 424.046C916.64 423.991 916.577 423.912 916.539 423.821C916.501 423.729 916.492 423.629 916.511 423.532C916.531 423.435 916.579 423.346 916.649 423.276L976.1 364.624L931.9 275.976C931.867 275.917 931.846 275.852 931.839 275.784C931.831 275.717 931.838 275.648 931.858 275.584C931.878 275.519 931.91 275.459 931.954 275.407C931.998 275.355 932.052 275.313 932.113 275.282C932.174 275.252 932.24 275.235 932.308 275.231C932.375 275.227 932.443 275.237 932.507 275.26C932.571 275.284 932.629 275.32 932.679 275.366C932.728 275.413 932.767 275.469 932.794 275.531L977.161 364.5C977.208 364.595 977.223 364.701 977.205 364.805C977.187 364.909 977.137 365.004 977.061 365.078L917.347 423.984C917.256 424.077 917.131 424.13 917 424.131Z" fill="#0C0C0C"/>
<path d="M790.77 219.911L709.078 295.292L648.947 220.135L608.847 260.464L676 353.518C682.04 365.59 695.046 372.897 708.408 370.981C713.583 370.239 718.492 368.221 722.693 365.11L724.209 363.99L833.8 272.28L790.77 219.911Z" fill="#872AD0"/>
<path d="M787.078 311.408C786.956 311.409 786.838 311.366 786.746 311.286C786.654 311.206 786.594 311.095 786.578 310.974L782.778 282.474C782.763 282.344 782.799 282.212 782.88 282.109C782.96 282.005 783.078 281.937 783.208 281.919C783.339 281.902 783.47 281.936 783.575 282.015C783.68 282.094 783.75 282.211 783.769 282.341L787.569 310.841C787.578 310.906 787.574 310.973 787.557 311.036C787.54 311.1 787.511 311.16 787.471 311.212C787.431 311.264 787.381 311.308 787.324 311.341C787.268 311.374 787.205 311.395 787.139 311.404C787.119 311.407 787.099 311.408 787.078 311.408Z" fill="#0C0C0C"/>
<path d="M719.164 310.456C719.075 310.456 718.987 310.432 718.909 310.387C718.832 310.341 718.768 310.276 718.725 310.197L708.64 295.533C708.576 295.417 708.561 295.28 708.598 295.153C708.635 295.025 708.721 294.918 708.837 294.854C708.953 294.789 709.09 294.774 709.217 294.811C709.345 294.848 709.452 294.934 709.516 295.05L719.6 309.715C719.642 309.791 719.663 309.877 719.662 309.964C719.661 310.05 719.637 310.135 719.593 310.21C719.549 310.285 719.486 310.347 719.411 310.39C719.335 310.433 719.251 310.456 719.164 310.456Z" fill="#0C0C0C"/>
</svg>
